name rise49.5252peak65.1548fall88.8305.mot
datacolumns 19
datarows 20
range 1.54832400000000 1.57998700000000
endheader
time	ground_force1_vx	ground_force1_vy	ground_force1_vz	ground_force1_px	ground_force1_py	ground_force1_pz	ground_force2_vx	ground_force2_vy	ground_force2_vz	ground_force2_px	ground_force2_py	ground_force2_pz	ground_torque1_x	ground_torque1_y	ground_torque1_z	ground_torque2_x	ground_torque2_y	ground_torque2_z	
1.54832400000000	-49.30960500000000	812.01259100000004	55.44200200000000	0.14364600000000	0.00000000000000	0.14309100000000	-12.24972900000000	39.22004400000000	10.44923400000000	0.33902200000000	0.00000000000000	-0.05269500000000	0.00000000000000	28.78389600000000	0.00000000000000	0.00000000000000	6.55511200000000	0.00000000000000	
1.54999300000000	-49.82007100000000	810.13125900000000	55.39511400000000	0.14290200000000	0.00000000000000	0.14307800000000	-13.63790200000000	45.67494400000000	11.82977100000000	0.34306700000000	0.00000000000000	-0.05317700000000	0.00000000000000	28.76848600000000	0.00000000000000	0.00000000000000	7.49130700000000	0.00000000000000	
1.55166300000000	-50.34571800000000	808.14425700000004	55.33001700000000	0.14216900000000	0.00000000000000	0.14306300000000	-14.85238000000000	52.13246800000000	13.11303900000000	0.34700000000000	0.00000000000000	-0.05361600000000	0.00000000000000	28.75371000000000	0.00000000000000	0.00000000000000	8.38276700000000	0.00000000000000	
1.55333700000000	-50.88643900000000	806.05047600000000	55.24629400000000	0.14144800000000	0.00000000000000	0.14304400000000	-15.86154400000000	58.50268300000000	14.27156200000000	0.35083700000000	0.00000000000000	-0.05401900000000	0.00000000000000	28.73961700000000	0.00000000000000	0.00000000000000	9.21096700000000	0.00000000000000	
1.55499000000000	-51.44208300000000	803.84877800000004	55.14355400000000	0.14074100000000	0.00000000000000	0.14302300000000	-16.64586900000000	64.71931700000000	15.28653500000000	0.35458600000000	0.00000000000000	-0.05439000000000	0.00000000000000	28.72624600000000	0.00000000000000	0.00000000000000	9.96236400000000	0.00000000000000	
1.55666200000000	-52.01245400000000	801.53798900000004	55.02143300000000	0.14004800000000	0.00000000000000	0.14299900000000	-17.19787500000000	70.74155200000000	16.14803100000000	0.35825500000000	0.00000000000000	-0.05473500000000	0.00000000000000	28.71362700000000	0.00000000000000	0.00000000000000	10.62870400000000	0.00000000000000	
1.55832700000000	-52.59730600000000	799.11690699999997	54.87960100000000	0.13937100000000	0.00000000000000	0.14297200000000	-17.52111400000000	76.55342200000000	16.85444500000000	0.36185100000000	0.00000000000000	-0.05505600000000	0.00000000000000	28.70177500000000	0.00000000000000	0.00000000000000	11.20684600000000	0.00000000000000	
1.55998600000000	-53.19634700000000	796.58429500000000	54.71775400000000	0.13871100000000	0.00000000000000	0.14294100000000	-17.62841300000000	82.16127600000000	17.41134600000000	0.36537700000000	0.00000000000000	-0.05535700000000	0.00000000000000	28.69069500000000	0.00000000000000	0.00000000000000	11.69819100000000	0.00000000000000	
1.56165600000000	-53.80923500000000	793.93888800000002	54.53562300000000	0.13806800000000	0.00000000000000	0.14290600000000	-17.53966100000000	87.58983600000001	17.82994000000000	0.36883600000000	0.00000000000000	-0.05564100000000	0.00000000000000	28.68037800000000	0.00000000000000	0.00000000000000	12.10784400000000	0.00000000000000	
1.56332400000000	-54.43557500000000	791.17938800000002	54.33296800000000	0.13744400000000	0.00000000000000	0.14286800000000	-17.27939500000000	92.87743700000000	18.12534200000000	0.37223000000000	0.00000000000000	-0.05591100000000	0.00000000000000	28.67080100000000	0.00000000000000	0.00000000000000	12.44360500000000	0.00000000000000	
1.56499000000000	-55.07492200000000	788.30446700000005	54.10958400000000	0.13684000000000	0.00000000000000	0.14282500000000	-16.87442300000000	98.07097500000000	18.31482000000000	0.37556000000000	0.00000000000000	-0.05616700000000	0.00000000000000	28.66192400000000	0.00000000000000	0.00000000000000	12.71491200000000	0.00000000000000	
1.56665700000000	-55.72677600000000	785.31277000000000	53.86529800000000	0.13625500000000	0.00000000000000	0.14277900000000	-16.35166800000000	103.22102400000000	18.41617900000000	0.37882600000000	0.00000000000000	-0.05641200000000	0.00000000000000	28.65369300000000	0.00000000000000	0.00000000000000	12.93182500000000	0.00000000000000	
1.56831900000000	-56.39058100000000	782.20291699999996	53.59997000000000	0.13569000000000	0.00000000000000	0.14272800000000	-15.73636300000000	108.37749500000000	18.44636500000000	0.38202900000000	0.00000000000000	-0.05664700000000	0.00000000000000	28.64603700000000	0.00000000000000	0.00000000000000	13.10412600000000	0.00000000000000	
1.57000000000000	-57.06572600000000	778.97350300000005	53.31349300000000	0.13514600000000	0.00000000000000	0.14267300000000	-15.05068900000000	113.58606700000000	18.42038900000000	0.38516700000000	0.00000000000000	-0.05687400000000	0.00000000000000	28.63886800000000	0.00000000000000	0.00000000000000	13.24059700000000	0.00000000000000	
1.57165600000000	-57.75154000000000	775.62310300000001	53.00579600000000	0.13462400000000	0.00000000000000	0.14261400000000	-14.31287800000000	118.88554200000000	18.35057500000000	0.38823900000000	0.00000000000000	-0.05709400000000	0.00000000000000	28.63208000000000	0.00000000000000	0.00000000000000	13.34848200000000	0.00000000000000	
1.57332600000000	-58.44729400000000	772.15027199999997	52.67684000000000	0.13412300000000	0.00000000000000	0.14255000000000	-13.53675600000000	124.30616300000000	18.24614500000000	0.39124600000000	0.00000000000000	-0.05730800000000	0.00000000000000	28.62554800000000	0.00000000000000	0.00000000000000	13.43316800000000	0.00000000000000	
1.57499200000000	-59.15220000000000	768.55355199999997	52.32662200000000	0.13364300000000	0.00000000000000	0.14248200000000	-12.73170800000000	129.86884499999999	18.11311200000000	0.39418400000000	0.00000000000000	-0.05751700000000	0.00000000000000	28.61913100000000	0.00000000000000	0.00000000000000	13.49805600000000	0.00000000000000	
1.57665100000000	-59.86540400000000	764.83147399999996	51.95517300000000	0.13318400000000	0.00000000000000	0.14240900000000	-11.90296800000000	135.58520700000000	17.95442700000000	0.39705400000000	0.00000000000000	-0.05772200000000	0.00000000000000	28.61266800000000	0.00000000000000	0.00000000000000	13.54460200000000	0.00000000000000	
1.57831800000000	-60.58599300000000	760.98256200000003	51.56255700000000	0.13274700000000	0.00000000000000	0.14233100000000	-11.05216200000000	141.45827499999999	17.77033400000000	0.39985300000000	0.00000000000000	-0.05792300000000	0.00000000000000	28.60597900000000	0.00000000000000	0.00000000000000	13.57250700000000	0.00000000000000	
1.57998700000000	-61.31298900000000	757.00533700000005	51.14887300000000	0.13233100000000	0.00000000000000	0.14224900000000	-10.17801900000000	147.48365899999999	17.55885400000000	0.40257900000000	0.00000000000000	-0.05812200000000	0.00000000000000	28.59886600000000	0.00000000000000	0.00000000000000	13.57999700000000	0.00000000000000	
